General
Complete name : JFK.1991.Director's.Cut.BRRip.H264.AAC.5.1ch.Gopo.mp4
Format : MPEG-4
Format profile : Base Media
Codec ID : isom
File size : 3.03 GiB
Duration : 3h 25mn
Overall bit rate : 2 106 Kbps
Encoded date : UTC 2009-11-22 21:06:12
Tagged date : UTC 2009-11-22 21:06:12
Video #1
ID : 1
Format : AVC
Format/Info : Advanced Video Codec
Format profile : High@L4.1
Format settings, CABAC : Yes
Format settings, ReFrames : 4 frames
Codec ID : avc1
Codec ID/Info : Advanced Video Coding
Duration : 3h 25mn
Bit rate mode : Variable
Bit rate : 1 800 Kbps
Maximum bit rate : 6 014 Kbps
Width : 1 280 pixels
Height : 528 pixels
Display aspect ratio : 2.40:1
Frame rate mode : Constant
Frame rate : 23.976 fps
Resolution : 24 bits
Colorimetry : 4:2:0
Scan type : Progressive
Bits/(Pixel*Frame) : 0.111
Stream size : 2.59 GiB (85%)
Writing library : x264 core 68 r1183M f21daff
Encoding settings : cabac=1 / ref=4 / deblock=1:-1:-1 / analyse=0x3:0x113 / me=umh / subme=8 / psy_rd=1.0:0.0 / mixed_ref=1 / me_range=16 / chroma_me=1 / trellis=2 / 8x8dct=1 / cqm=0 / deadzone=21,11 / chroma_qp_offset=-2 / threads=1 / nr=0 / decimate=1 / mbaff=0 / bframes=3 / b_pyramid=0 / b_adapt=2 / b_bias=0 / direct=3 / wpredb=1 / keyint=250 / keyint_min=25 / scenecut=40 / rc=2pass / bitrate=1800 / ratetol=1.0 / qcomp=0.60 / qpmin=10 / qpmax=51 / qpstep=4 / cplxblur=20.0 / qblur=0.5 / vbv_maxrate=50000 / vbv_bufsize=50000 / ip_ratio=1.40 / pb_ratio=1.30 / aq=1:1.00
Encoded date : UTC 2009-11-21 01:25:35
Tagged date : UTC 2009-11-22 21:09:00
Audio #2
ID : 2
Format : AAC
Format/Info : Advanced Audio Codec
Format version : Version 4
Format profile : LC
Format settings, SBR : No
Codec ID : 40
Duration : 3h 25mn
Bit rate mode : Variable
Bit rate : 303 Kbps
Maximum bit rate : 406 Kbps
Channel(s) : 6 channels
Channel positions : Front: L C R, Rear: L R, LFE
Sampling rate : 48.0 KHz
Resolution : 16 bits
Stream size : 445 MiB (14%)
Encoded date : UTC 2009-11-22 21:08:39
Tagged date : UTC 2009-11-22 21:09:00
Sample : YES
Subtitle : English,Romanian

PLOT

A mixture of fact and speculation surrounding the death of U.S. President John F. Kennedy on 22nd November, 1963. New Orleans District Attorney, Jim Garrison, re-opens the files on the investigation and takes a critical look at the facts given by the F.B.I. His persistent questioning and poking his nose where it shouldn't be causes his and his family's lives to be at risk. But he keeps on the trail and soon uncovers a lead which points to the war in Vietnam.

Director: Oliver Stone
CASTING

Sally Kirkland ... Rose Cheramie
Anthony Ramirez ... Epileptic
Ray LePere ... Zapruder
Steve Reed ... John F. Kennedy - Double
Jodie Farber ... Jackie Kennedy - Double (as Jodi Farber)
Columbia Dubose ... Nellie Connally - Double
Randy Means ... Gov. Connally - Double
Kevin Costner ... Jim Garrison
Jay O. Sanders ... Lou Ivon
E.J. Morris ... Plaza Witness #1
Cheryl Penland ... Plaza Witness #2
Jim Gough ... Plaza Witness #3
Perry R. Russo ... Angry Bar Patron
Mike Longman ... TV Newsman #1
Edward Asner ... Guy Bannister

SOURCE: JFK.1991.720p.BluRay.x264-SiNNERS.mkv

Notes: For best performance I suggest you to use KMPlayer(find it with google) for playback
I haven't tested the movies on a PS3 or Xbox or other devices than PC because I don't own one of them but feel free to test them if you have the oportunity.